<?xml version="1.0" encoding="UTF-8"?>
<svg id="Calque_1" xmlns="http://www.w3.org/2000/svg" version="1.1" viewBox="0 0 86.4 86.4">
  <!-- Generator: Adobe Illustrator 30.0.0, SVG Export Plug-In . SVG Version: 2.1.1 Build 123)  -->
  <defs>
    <style>
      .st0 {
        fill: #fff;
      }
    </style>
  </defs>
  <path class="st0" d="M86.4,0v86.4H0V0h86.4ZM57.84,23.04h-20.52c-1.24,0-4.47,1.38-5.62,2.06-10.52,6.2-9.46,22.17,2.14,26.26v4.32h-5.28v7.68h20.52c3.79,0,8.92-4.05,10.8-7.2,4.66-7.77,1.3-18.19-7.32-21.12v-4.32h5.28v-7.68Z"/>
  <path d="M57.84,23.04v7.68h-5.28v4.32c8.62,2.94,11.99,13.35,7.32,21.12-1.89,3.14-7.02,7.2-10.8,7.2h-20.52v-7.68h5.28v-4.32c-11.6-4.09-12.66-20.06-2.14-26.26,1.15-.68,4.38-2.06,5.62-2.06h20.52ZM55.68,25.2h-15.96c-7.56,0-11.64,10.05-6.72,16.08,5.34,6.55,13.44,1.07,17.74,5.54,3,3.12,2.06,8.47-1.8,10.39-.22.11-1.45.62-1.54.62h-16.68v3.36h15.96c7.53,0,11.64-10.06,6.72-16.08-5.34-6.55-13.44-1.07-17.74-5.54-3-3.12-2.06-8.47,1.8-10.39.22-.11,1.45-.62,1.54-.62h16.68v-3.36ZM44.88,50.16c.42-4.24-2.85-2.89-5.61-3.15-8.25-.77-13.03-9.52-9.75-17.01-5.52,6-2.74,16.17,4.64,19.24.54.23,2.48.92,2.92.92h7.8ZM50.16,30.72h-10.44c-.08,0-1.39.52-1.54.62-3.12,1.89-2.45,7.15,1.3,7.78.34-.04-.12-.31-.12-.36v-4.92h10.8v-3.12ZM49.32,36.24c-2.41-.29-5.33.21-7.8,0-.42,4.24,2.85,2.89,5.61,3.15,8.23.77,13.04,9.53,9.75,17.01,6.42-6.66,1.44-19.09-7.56-20.16ZM36.24,55.68h10.44c.11,0,1.43-.62,1.64-.76,3.07-1.99,2.27-6.97-1.4-7.64-.34.04.12.31.12.36v4.92h-10.8v3.12Z"/>
  <path class="st0" d="M55.68,25.2v3.36h-16.68c-.08,0-1.32.51-1.54.62-3.85,1.93-4.79,7.27-1.8,10.39,4.3,4.47,12.4-1,17.74,5.54,4.91,6.02.81,16.08-6.72,16.08h-15.96v-3.36h16.68c.08,0,1.32-.51,1.54-.62,3.85-1.93,4.79-7.27,1.8-10.39-4.3-4.47-12.4,1-17.74-5.54-4.92-6.03-.83-16.08,6.72-16.08h15.96Z"/>
  <path class="st0" d="M44.88,50.16h-7.8c-.45,0-2.38-.69-2.92-.92-7.38-3.07-10.16-13.25-4.64-19.24-3.27,7.49,1.5,16.24,9.75,17.01,2.76.26,6.03-1.09,5.61,3.15Z"/>
  <path class="st0" d="M49.32,36.24c9,1.07,13.98,13.5,7.56,20.16,3.29-7.48-1.53-16.24-9.75-17.01-2.76-.26-6.03,1.09-5.61-3.15,2.47.21,5.39-.29,7.8,0Z"/>
  <path class="st0" d="M50.16,30.72v3.12h-10.8v4.92c0,.05.46.32.12.36-3.75-.63-4.42-5.9-1.3-7.78.16-.09,1.46-.62,1.54-.62h10.44Z"/>
  <path class="st0" d="M36.24,55.68v-3.12h10.8v-4.92c0-.05-.46-.32-.12-.36,3.67.67,4.47,5.65,1.4,7.64-.21.14-1.54.76-1.64.76h-10.44Z"/>
</svg>